<?xml version="1.0" encoding="UTF-8"?>
<svg version="1.1" xmlns="http://www.w3.org/2000/svg" width="32" height="32">
<path d="M0 0 C3.32848477 1.95367584 4.68238968 3.35034253 6.375 6.8125 C7.23005251 11.17326783 7.36161536 14.87664177 4.8828125 18.7421875 C2.5540755 21.62210485 0.7985825 23.74819845 -2.953125 24.2734375 C-7.29110593 24.46525298 -9.56554013 24.24487738 -13.4375 22.0625 C-16.67200937 18.19686685 -17.88788738 15.03644372 -18 10 C-17.24553655 6.33344868 -15.75831182 3.71091733 -13 1.125 C-8.60021738 -1.34987772 -4.78380943 -1.19595236 0 0 Z " fill="#00ADEE" transform="translate(21,4)"/>
<path d="M0 0 C1.98 0 3.96 0 6 0 C6 2.31 6 4.62 6 7 C4.33388095 7.042721 2.66617115 7.04063832 1 7 C0 6 0 6 -0.0625 2.9375 C-0.041875 1.968125 -0.02125 0.99875 0 0 Z " fill="#F2FAFD" transform="translate(9,16)"/>
</svg>
